<svg width="38" height="31" viewBox="0 0 38 31" fill="none" xmlns="http://www.w3.org/2000/svg">
<g clip-path="url(#clip0_722_51)">
<path d="M16.509 1.1012C17.3954 0.960929 18.3574 0.825966 19.3948 0.695314C20.4318 0.565657 21.6003 0.5 22.8992 0.5C23.3831 0.5 23.8887 0.520228 24.4175 0.56002C24.9464 0.600144 25.4676 0.672765 25.9811 0.777884C26.4947 0.883002 26.9826 1.03322 27.4466 1.22853C27.9093 1.42385 28.3204 1.67686 28.6773 1.98724C29.0348 2.29762 29.3169 2.67598 29.5234 3.12132C29.7293 3.567 29.8328 4.09027 29.8328 4.69114C29.8328 5.13184 29.7576 5.57022 29.6066 6.00561C29.4559 6.44134 29.2314 6.85219 28.9347 7.23752C28.6374 7.62317 28.2698 7.97136 27.8321 8.28141C27.3937 8.59179 26.8875 8.84248 26.3137 9.03249V9.09251C26.4847 9.12268 26.7112 9.17541 26.9936 9.25035C27.2753 9.32562 27.575 9.43572 27.892 9.58096C28.2096 9.72653 28.5289 9.90925 28.8512 10.1294C29.1735 10.3496 29.4632 10.6152 29.72 10.9253C29.9768 11.236 30.1857 11.5991 30.347 12.0146C30.5076 12.4301 30.5885 12.9083 30.5885 13.4491C30.5885 13.6593 30.5635 13.9323 30.5133 14.2678C30.4624 14.6034 30.3543 14.9616 30.1883 15.3419C30.0223 15.7226 29.7852 16.1059 29.4785 16.4909C29.1709 16.8766 28.7608 17.2248 28.2472 17.5351C27.7337 17.8455 27.099 18.0985 26.3433 18.2938C25.5883 18.4892 24.6873 18.5866 23.6395 18.5866C23.1659 18.5866 22.7458 18.5767 22.3783 18.5568C22.0104 18.5366 21.6482 18.5117 21.291 18.4815C20.9331 18.4517 20.5602 18.4265 20.1727 18.4066C19.7852 18.3864 19.3342 18.3764 18.8207 18.3764C18.5792 18.3764 18.4585 18.2514 18.4585 18.001V3.12928C18.4585 2.62856 18.347 2.2953 18.1262 2.13016C17.9047 1.96502 17.6176 1.88245 17.2654 1.88245C17.0638 1.88245 16.8426 1.89738 16.6005 1.92755L16.5097 1.1012H16.509ZM21.268 8.76223C21.3681 8.76223 21.4663 8.76488 21.5627 8.76986C21.6582 8.77516 21.7513 8.77748 21.8421 8.77748C22.678 8.77748 23.4077 8.71249 24.032 8.58217C24.6567 8.45218 25.1729 8.24659 25.5803 7.96638C25.9888 7.68618 26.2928 7.32307 26.4943 6.8774C26.6959 6.43205 26.7967 5.88855 26.7967 5.24723C26.7967 4.60591 26.6906 4.078 26.4794 3.63266C26.2675 3.18731 25.9728 2.82122 25.5956 2.53604C25.2178 2.25053 24.7648 2.04295 24.2359 1.91263C23.7071 1.78264 23.1253 1.71732 22.491 1.71732C22.058 1.71732 21.7457 1.74716 21.5544 1.80718C21.3632 1.8672 21.2677 2.04759 21.2677 2.34803V8.76223H21.268ZM21.268 17.0994C21.3888 17.1296 21.5418 17.1574 21.7287 17.1823C21.915 17.2075 22.1135 17.2297 22.3254 17.25C22.5366 17.2702 22.7555 17.2851 22.9823 17.2947C23.2091 17.3047 23.4227 17.3096 23.6242 17.3096C24.3593 17.3096 24.9736 17.2025 25.4672 16.9867C25.9602 16.7711 26.353 16.4985 26.6453 16.1679C26.937 15.8373 27.1443 15.4792 27.2647 15.0935C27.3854 14.7085 27.4459 14.3501 27.4459 14.0195C27.4459 13.2084 27.3172 12.5399 27.0604 12.0143C26.8037 11.4887 26.4411 11.0732 25.9725 10.7674C25.5045 10.462 24.9404 10.2518 24.2808 10.1364C23.6213 10.0213 22.8932 9.96363 22.0982 9.96363H21.4713C21.4057 9.96363 21.3375 9.96893 21.2674 9.97855V17.0987L21.268 17.0994Z" fill="#3779BB"/>
<path d="M37.3031 28.9279C36.7768 29.2204 36.2001 29.467 35.5728 29.6686C34.9455 29.8706 34.3308 30.0316 33.7293 30.1526C33.1275 30.2732 32.5661 30.3615 32.0447 30.417C31.523 30.4722 31.101 30.5 30.7769 30.5C29.3806 30.5 28.1058 30.266 26.9525 29.7972C25.7992 29.3285 24.8104 28.6813 23.9858 27.8549C23.1605 27.0285 22.5207 26.0464 22.0655 24.9073C21.6103 23.7686 21.3826 22.5244 21.3826 21.1737C21.3826 19.7127 21.6404 18.4176 22.1565 17.2887C22.6726 16.1602 23.386 15.2102 24.2963 14.4393C25.207 13.6682 26.2845 13.0841 27.5291 12.6858C28.7735 12.2878 30.1241 12.0884 31.5813 12.0884C32.4006 12.0884 33.1851 12.1413 33.9339 12.2471C34.6827 12.3529 35.411 12.4815 36.1194 12.6325C36.2104 12.653 36.2842 12.6953 36.3398 12.7611C36.3948 12.8269 36.4279 12.895 36.4378 12.9651C36.4481 13.1065 36.4613 13.288 36.4766 13.5092C36.4918 13.731 36.5037 13.9703 36.514 14.2271C36.5242 14.4843 36.5371 14.7464 36.5524 15.0132C36.5676 15.2803 36.5798 15.5272 36.5898 15.754C36.5997 15.9807 36.6073 16.1748 36.6129 16.3361C36.6179 16.497 36.6199 16.5982 36.6199 16.6382L35.8612 16.7139C35.8003 16.0891 35.6162 15.5599 35.3077 15.1266C34.9988 14.6935 34.6168 14.3428 34.1613 14.0757C33.7058 13.809 33.203 13.6146 32.6518 13.4936C32.0997 13.3726 31.5508 13.3122 31.0046 13.3122C29.9016 13.3122 28.943 13.4936 28.129 13.8566C27.3146 14.2195 26.6364 14.7206 26.0954 15.3606C25.5542 16.0009 25.149 16.7565 24.8812 17.6282C24.6131 18.4999 24.4784 19.4499 24.4784 20.4776C24.4784 21.6772 24.6435 22.7931 24.9723 23.8261C25.3006 24.8591 25.7939 25.7536 26.4516 26.5092C27.1094 27.2652 27.9287 27.8599 28.9102 28.2929C29.8917 28.7262 31.04 28.9428 32.3556 28.9428C33.1447 28.9428 33.9084 28.8575 34.6473 28.6859C35.3858 28.5144 36.1346 28.283 36.8933 27.9904L37.3031 28.9275V28.9279Z" fill="#3779BB"/>
<path d="M13.2527 2.66646C13.0219 2.51766 12.7574 2.40852 12.459 2.33806C12.1606 2.26792 11.8533 2.23285 11.5364 2.23285C11.1826 2.23285 10.8364 2.27054 10.4977 2.3456C10.1591 2.42065 9.85736 2.54028 9.59324 2.70383C9.32879 2.8677 9.11544 3.07976 8.95387 3.34032C8.79197 3.60088 8.71118 3.91486 8.71118 4.28227C8.71118 4.60969 8.77845 4.89025 8.91331 5.12426C9.04818 5.35828 9.22855 5.54935 9.45409 5.69815C9.67996 5.84695 9.93914 5.95642 10.2326 6.02656C10.5257 6.0967 10.8308 6.13177 11.1473 6.13177C11.5011 6.13177 11.85 6.09407 12.1936 6.01902C12.5375 5.94396 12.8438 5.82434 13.1136 5.66079C13.3833 5.49724 13.6012 5.28486 13.7681 5.0243C13.9349 4.76374 14.018 4.44975 14.018 4.08202C14.018 3.75459 13.9481 3.47404 13.8083 3.24003C13.6685 3.00634 13.4832 2.81493 13.2524 2.66613" fill="#3779BB"/>
<path d="M0.696777 30.5H15.3177V0.716614H0.696777V30.5ZM8.76 10.6048C8.77856 10.6826 8.84386 10.7212 8.95557 10.7212H14.2298C14.3111 10.7212 14.3588 10.7616 14.372 10.8426C14.3823 10.8998 14.3916 10.963 14.4002 11.0321C14.4085 11.1012 14.4155 11.1687 14.4204 11.2342C14.4257 11.3 14.4287 11.3605 14.4307 11.4164C14.4324 11.472 14.4334 11.5133 14.4334 11.5401C14.4334 11.6211 14.3909 11.6615 14.3064 11.6615H9.22041C9.04771 11.6615 8.93336 11.6985 8.87734 11.7726C8.82132 11.8467 8.79348 11.9429 8.79348 12.0607C8.79348 12.1281 8.79845 12.2022 8.80873 12.2832L8.5293 12.3137C8.47859 12.017 8.43119 11.6952 8.3871 11.348C8.34335 11.001 8.32114 10.6098 8.32114 10.1749C8.32114 9.9758 8.33042 9.77704 8.34898 9.57828C8.36755 9.37951 8.40069 9.19001 8.44809 9.00944C8.49549 8.8292 8.55814 8.66053 8.63603 8.50377C8.71393 8.347 8.8137 8.21141 8.93568 8.09665C9.05766 7.98189 9.20251 7.89193 9.37023 7.82612C9.53795 7.76031 9.73351 7.72756 9.95692 7.72756C10.3093 7.72756 10.6073 7.80165 10.8512 7.95014C11.0952 8.09863 11.2941 8.29574 11.4482 8.5418C11.6023 8.78819 11.7167 9.07128 11.7909 9.39142C11.8655 9.71156 11.9096 10.0436 11.9232 10.3876L11.6335 10.4332C11.6133 10.1637 11.5725 9.92487 11.5115 9.71784C11.4505 9.51048 11.3617 9.33619 11.2447 9.19431C11.1277 9.05276 10.9798 8.94561 10.8002 8.87318C10.6208 8.80075 10.4021 8.76437 10.1449 8.76437C9.92146 8.76437 9.72125 8.80141 9.54524 8.8755C9.36923 8.94991 9.22107 9.05243 9.10075 9.18406C8.98043 9.31569 8.88927 9.47311 8.82629 9.65699C8.76365 9.84087 8.73216 10.0423 8.73216 10.2612C8.73216 10.413 8.74144 10.5278 8.76 10.6052M8.82861 18.5289L8.54919 18.5593C8.51538 18.3774 8.48654 18.2045 8.46268 18.0411C8.43881 17.8777 8.42025 17.7325 8.40666 17.6062C8.3934 17.4799 8.38313 17.3744 8.37616 17.29C8.36954 17.206 8.36589 17.1518 8.36589 17.1283C8.36589 17.0205 8.42025 16.9666 8.52864 16.9666H12.5122C12.7661 16.9699 12.9802 16.9381 13.1549 16.8703C13.3293 16.8029 13.4701 16.7086 13.5769 16.5872C13.6836 16.4659 13.7598 16.3243 13.8052 16.1623C13.851 16.0005 13.8738 15.8253 13.8738 15.6364C13.8738 15.3937 13.8347 15.1552 13.7568 14.9207C13.6789 14.6866 13.5825 14.4531 13.4671 14.2203H8.61979C8.5419 14.2203 8.4945 14.1799 8.47759 14.0989C8.46765 14.045 8.45903 13.9835 8.4524 13.9144C8.44577 13.8452 8.43981 13.7771 8.4345 13.7096C8.42953 13.6422 8.42522 13.5807 8.42191 13.5251C8.41859 13.4695 8.41693 13.4282 8.41693 13.4011C8.41693 13.3201 8.45936 13.2797 8.54389 13.2797H14.2295C14.3107 13.2797 14.3584 13.3201 14.3717 13.4011C14.382 13.4583 14.3913 13.5198 14.3999 13.5856C14.4082 13.6514 14.4151 13.7156 14.4201 13.7778C14.4254 13.8399 14.4284 13.8965 14.4304 13.9471C14.432 13.9977 14.433 14.0364 14.433 14.0632C14.433 14.1409 14.3906 14.1813 14.3061 14.1846L13.8894 14.2199C14.0654 14.5368 14.2123 14.8698 14.3289 15.2187C14.446 15.5676 14.5043 15.9208 14.5043 16.2784C14.5043 16.5009 14.4738 16.7116 14.4128 16.9104C14.3518 17.1095 14.2587 17.2821 14.1334 17.4286C14.0081 17.5751 13.848 17.6915 13.6534 17.7775C13.4585 17.8635 13.2291 17.9065 12.965 17.9065H9.27609C9.18129 17.9065 9.10406 17.9157 9.04473 17.9343C8.98573 17.9528 8.93899 17.9799 8.90518 18.015C8.87137 18.0504 8.84751 18.0927 8.83392 18.1413C8.82033 18.1902 8.8137 18.2451 8.8137 18.3057C8.8137 18.3731 8.819 18.4472 8.82895 18.5282M8.34103 21.1829C8.35462 21.0044 8.38014 20.8291 8.41727 20.6571C8.45472 20.4851 8.5061 20.3217 8.57206 20.1666C8.63802 20.0115 8.72453 19.8759 8.83127 19.7595C8.938 19.6431 9.06661 19.5505 9.21742 19.4814C9.36824 19.4123 9.5469 19.3775 9.75373 19.3775C9.97383 19.3775 10.1677 19.4106 10.3355 19.4761C10.5032 19.5419 10.6513 19.6329 10.78 19.7493C10.9089 19.8657 11.0186 20.0013 11.1101 20.1564C11.2016 20.3115 11.2795 20.4785 11.3438 20.6571H11.3743C11.3912 20.5728 11.4174 20.4818 11.4528 20.3839C11.4883 20.286 11.539 20.1911 11.6053 20.0982C11.6713 20.0056 11.7551 19.9196 11.8569 19.8402C11.9583 19.7612 12.0839 19.698 12.2328 19.6507L13.3962 19.2767C13.5556 19.2261 13.6826 19.1798 13.7774 19.1378C13.8722 19.0958 13.9444 19.0511 13.9935 19.0038C14.0426 18.9569 14.0747 18.9026 14.09 18.8421C14.1052 18.7812 14.1128 18.7055 14.1128 18.6146L14.377 18.5993C14.3906 18.6635 14.4032 18.7333 14.4151 18.809C14.4271 18.8851 14.4363 18.9602 14.443 19.0342C14.4499 19.1083 14.4556 19.1751 14.4609 19.234C14.4658 19.2932 14.4685 19.3375 14.4685 19.3679C14.4685 19.4758 14.4559 19.572 14.4304 19.656C14.4049 19.7403 14.3611 19.8161 14.2985 19.8835C14.2358 19.951 14.1529 20.0109 14.0495 20.0628C13.9461 20.115 13.8168 20.1633 13.6607 20.207L12.421 20.5661C12.245 20.6167 12.1045 20.6773 11.9994 20.748C11.8943 20.8188 11.8138 20.9071 11.7581 21.0136C11.7021 21.1198 11.665 21.2481 11.6464 21.3979C11.6278 21.5481 11.6152 21.7293 11.6083 21.9416L11.3186 21.9873C11.3017 21.7276 11.2642 21.4984 11.2069 21.2994C11.1492 21.1006 11.0653 20.9346 10.9553 20.8013C10.8452 20.6683 10.7054 20.5671 10.536 20.498C10.3666 20.4289 10.1618 20.3942 9.92112 20.3942C9.72125 20.3942 9.5469 20.4312 9.39774 20.5053C9.24891 20.5797 9.12594 20.6822 9.02948 20.8139C8.93303 20.9455 8.8611 21.1006 8.81337 21.2792C8.76597 21.4581 8.7421 21.6499 8.7421 21.8556C8.7421 21.9906 8.75337 22.0918 8.77525 22.1589C8.79746 22.2264 8.85911 22.2601 8.96054 22.2601H14.2295C14.3107 22.2601 14.3584 22.3004 14.3717 22.3815C14.382 22.439 14.3913 22.5022 14.3999 22.571C14.4082 22.6401 14.4151 22.7076 14.4201 22.773C14.4254 22.8389 14.4284 22.8994 14.4304 22.9549C14.432 23.0105 14.433 23.0518 14.433 23.079C14.433 23.16 14.3906 23.2003 14.3061 23.2003H9.2098C9.04042 23.2003 8.92772 23.2374 8.87171 23.3115C8.81569 23.3855 8.78784 23.4818 8.78784 23.5998C8.78784 23.6673 8.79315 23.7414 8.80309 23.8224L8.52367 23.8528C8.46599 23.5158 8.41793 23.1659 8.37882 22.8035C8.34003 22.441 8.32048 22.0713 8.32048 21.6936C8.32048 21.5318 8.32711 21.3615 8.3407 21.1829M14.3084 27.9389C14.1712 28.3569 13.9713 28.7158 13.7091 29.0157C13.4466 29.3157 13.1231 29.5492 12.7386 29.7162C12.3541 29.8832 11.9146 29.9666 11.42 29.9666C10.9255 29.9666 10.4647 29.8779 10.0786 29.701C9.69241 29.5241 9.3699 29.2796 9.11069 28.9678C8.85149 28.6559 8.65592 28.2875 8.524 27.8628C8.39174 27.4382 8.32578 26.9762 8.32578 26.4774C8.32578 26.191 8.34269 25.9212 8.3765 25.6685C8.41031 25.4155 8.45439 25.1678 8.50875 24.925C8.51538 24.888 8.52996 24.8619 8.55184 24.8467C8.57405 24.8315 8.59659 24.8222 8.62045 24.8189C8.66785 24.8156 8.72884 24.8113 8.80342 24.8063C8.878 24.801 8.95822 24.7971 9.04473 24.7938C9.13091 24.7904 9.21908 24.7861 9.30891 24.7812C9.39874 24.7759 9.4816 24.7719 9.55784 24.7686C9.63407 24.7653 9.69937 24.7627 9.7534 24.761C9.80776 24.7594 9.84157 24.7587 9.85483 24.7587L9.88035 25.0114C9.66689 25.0385 9.48757 25.105 9.34172 25.2111C9.19621 25.3173 9.07854 25.4479 8.98871 25.603C8.89889 25.7581 8.83458 25.9301 8.79547 26.1186C8.75669 26.3075 8.73713 26.4963 8.73713 26.6851C8.73713 27.0559 8.79547 27.382 8.91248 27.6637C9.02948 27.9452 9.19455 28.1803 9.40768 28.3692C9.62115 28.558 9.87671 28.6996 10.175 28.7938C10.473 28.8884 10.8035 28.9354 11.1658 28.9354C11.5927 28.9354 11.9828 28.8765 12.3368 28.7584C12.6908 28.6404 12.9948 28.4644 13.249 28.2299C13.5033 27.9958 13.7005 27.7041 13.841 27.3552C13.9816 27.0063 14.0518 26.6008 14.0518 26.1391C14.0518 26.0617 14.0502 25.9817 14.0469 25.899C14.0436 25.8163 14.0366 25.7313 14.0267 25.6437H12.4313C12.3332 25.6437 12.2533 25.6503 12.1927 25.6639C12.1317 25.6774 12.0853 25.7003 12.0531 25.732C12.021 25.7641 11.9991 25.8054 11.9871 25.856C11.9752 25.9066 11.9692 25.9691 11.9692 26.0432C11.9692 26.0667 11.9702 26.0912 11.9716 26.1166C11.9732 26.1418 11.9742 26.1679 11.9742 26.195L11.6895 26.2205C11.6762 26.0386 11.665 25.8709 11.6563 25.7175C11.6481 25.564 11.6411 25.4291 11.6361 25.313C11.6312 25.1966 11.6278 25.1007 11.6262 25.0246C11.6245 24.9489 11.6235 24.8992 11.6235 24.8754C11.6235 24.7676 11.6779 24.7137 11.7863 24.7137H14.1844C14.2219 24.7137 14.2487 24.7322 14.2656 24.7693C14.3538 25.056 14.4171 25.349 14.4562 25.6493C14.495 25.9493 14.5146 26.2529 14.5146 26.5595C14.5146 27.0618 14.446 27.5219 14.3087 27.9399M14.3038 5.52629C14.1632 5.8785 13.9627 6.17847 13.7015 6.42651C13.4406 6.67422 13.1221 6.86471 12.7462 6.99799C12.3703 7.13127 11.9454 7.19775 11.4711 7.19775C10.9596 7.19775 10.5075 7.12268 10.1147 6.97286C9.72158 6.82271 9.3931 6.60973 9.12892 6.33325C8.86474 6.05676 8.66487 5.72406 8.5293 5.33447C8.39373 4.94521 8.32611 4.51097 8.32611 4.03242C8.32611 3.59752 8.39373 3.20496 8.5293 2.85439C8.66487 2.50383 8.86044 2.20453 9.116 1.95682C9.37189 1.70911 9.68578 1.51762 10.0587 1.38302C10.4312 1.24808 10.8532 1.18062 11.3239 1.18062C11.8387 1.18062 12.2944 1.25569 12.6905 1.40584C13.0869 1.55598 13.4197 1.7693 13.6889 2.04545C13.958 2.32193 14.1632 2.65464 14.3038 3.04423C14.4443 3.43349 14.5146 3.86772 14.5146 4.34627C14.5146 4.78117 14.4443 5.17473 14.3038 5.52695" fill="#3779BB"/>
</g>
<defs>
<clipPath id="clip0_722_51">
<rect width="38" height="31" fill="white"/>
</clipPath>
</defs>
</svg>
